<mxfile host="app.diagrams.net" agent="Mozilla/5.0 (Windows NT 10.0; Win64; x64) AppleWebKit/537.36 (KHTML, like Gecko) Chrome/128.0.0.0 Safari/537.36 Edg/128.0.0.0" version="24.7.14">
  <diagram name="Página-1" id="nIE1Q2BYIuBB_XQ1pa8Z">
    <mxGraphModel grid="1" page="1" gridSize="10" guides="1" tooltips="1" connect="1" arrows="1" fold="1" pageScale="1" pageWidth="1169" pageHeight="827" math="0" shadow="0">
      <root>
        <mxCell id="0" />
        <mxCell id="1" parent="0" />
        <mxCell id="6xLySdYBZOp1CcjLtc1y-20" style="edgeStyle=orthogonalEdgeStyle;rounded=0;orthogonalLoop=1;jettySize=auto;html=1;exitX=0.5;exitY=0;exitDx=0;exitDy=0;entryX=0.5;entryY=0;entryDx=0;entryDy=0;" edge="1" parent="1" source="ywtfyx2kaNOGGYBeNAY6-1" target="6xLySdYBZOp1CcjLtc1y-3">
          <mxGeometry relative="1" as="geometry" />
        </mxCell>
        <mxCell id="ywtfyx2kaNOGGYBeNAY6-1" value="Mago" style="swimlane;fontStyle=1;align=center;verticalAlign=top;childLayout=stackLayout;horizontal=1;startSize=26;horizontalStack=0;resizeParent=1;resizeParentMax=0;resizeLast=0;collapsible=1;marginBottom=0;whiteSpace=wrap;html=1;" vertex="1" parent="1">
          <mxGeometry x="475" y="152" width="160" height="238" as="geometry" />
        </mxCell>
        <mxCell id="ywtfyx2kaNOGGYBeNAY6-2" value="+ Name: string&lt;div&gt;+ MaxLife: integer&lt;/div&gt;&lt;div&gt;+ Life: integer&lt;br&gt;&lt;div&gt;+ Items: List&amp;lt;IItem&amp;gt;&lt;/div&gt;&lt;div&gt;+ AttackValue: integer&lt;/div&gt;&lt;div&gt;+ DefenseValue: integer&lt;/div&gt;&lt;div&gt;&lt;span style=&quot;background-color: initial;&quot;&gt;+ Spells: List&amp;lt;Spell&amp;gt;&lt;/span&gt;&lt;/div&gt;&lt;/div&gt;" style="text;strokeColor=none;fillColor=none;align=left;verticalAlign=top;spacingLeft=4;spacingRight=4;overflow=hidden;rotatable=0;points=[[0,0.5],[1,0.5]];portConstraint=eastwest;whiteSpace=wrap;html=1;" vertex="1" parent="ywtfyx2kaNOGGYBeNAY6-1">
          <mxGeometry y="26" width="160" height="114" as="geometry" />
        </mxCell>
        <mxCell id="ywtfyx2kaNOGGYBeNAY6-3" value="" style="line;strokeWidth=1;fillColor=none;align=left;verticalAlign=middle;spacingTop=-1;spacingLeft=3;spacingRight=3;rotatable=0;labelPosition=right;points=[];portConstraint=eastwest;strokeColor=inherit;" vertex="1" parent="ywtfyx2kaNOGGYBeNAY6-1">
          <mxGeometry y="140" width="160" height="8" as="geometry" />
        </mxCell>
        <mxCell id="ywtfyx2kaNOGGYBeNAY6-4" value="&lt;div&gt;&lt;div&gt;+ Cure(): void&lt;/div&gt;&lt;/div&gt;+ AddItem(IItem): void&lt;div&gt;&lt;div&gt;+ AddSpell(Spell): void&amp;nbsp;&lt;div&gt;+ ReceiveAttack(int): voi&lt;span style=&quot;background-color: initial;&quot;&gt;d&lt;/span&gt;&lt;div&gt;&lt;span style=&quot;background-color: initial;&quot;&gt;+ UseSpell(Spell): integer&lt;/span&gt;&lt;br&gt;&lt;/div&gt;&lt;div&gt;&lt;div&gt;&lt;div&gt;&lt;br&gt;&lt;/div&gt;&lt;/div&gt;&lt;/div&gt;&lt;/div&gt;&lt;/div&gt;&lt;/div&gt;" style="text;strokeColor=none;fillColor=none;align=left;verticalAlign=top;spacingLeft=4;spacingRight=4;overflow=hidden;rotatable=0;points=[[0,0.5],[1,0.5]];portConstraint=eastwest;whiteSpace=wrap;html=1;" vertex="1" parent="ywtfyx2kaNOGGYBeNAY6-1">
          <mxGeometry y="148" width="160" height="90" as="geometry" />
        </mxCell>
        <mxCell id="6xLySdYBZOp1CcjLtc1y-21" style="edgeStyle=orthogonalEdgeStyle;rounded=0;orthogonalLoop=1;jettySize=auto;html=1;exitX=0.5;exitY=0;exitDx=0;exitDy=0;entryX=0.5;entryY=0;entryDx=0;entryDy=0;" edge="1" parent="1" source="ywtfyx2kaNOGGYBeNAY6-11" target="6xLySdYBZOp1CcjLtc1y-3">
          <mxGeometry relative="1" as="geometry" />
        </mxCell>
        <mxCell id="ywtfyx2kaNOGGYBeNAY6-11" value="Elfo" style="swimlane;fontStyle=1;align=center;verticalAlign=top;childLayout=stackLayout;horizontal=1;startSize=26;horizontalStack=0;resizeParent=1;resizeParentMax=0;resizeLast=0;collapsible=1;marginBottom=0;whiteSpace=wrap;html=1;" vertex="1" parent="1">
          <mxGeometry x="645" y="152" width="160" height="190" as="geometry">
            <mxRectangle x="190" y="120" width="60" height="30" as="alternateBounds" />
          </mxGeometry>
        </mxCell>
        <mxCell id="ywtfyx2kaNOGGYBeNAY6-12" value="+ Name: string&lt;div&gt;+ MaxLife: integer&lt;/div&gt;&lt;div&gt;+ Life: integer&lt;br&gt;&lt;div&gt;+ Items: List&amp;lt;IItem&amp;gt;&lt;/div&gt;&lt;div&gt;+ AttackValue: integer&lt;/div&gt;&lt;div&gt;+ DefenseValue: integer&lt;/div&gt;&lt;/div&gt;" style="text;strokeColor=none;fillColor=none;align=left;verticalAlign=top;spacingLeft=4;spacingRight=4;overflow=hidden;rotatable=0;points=[[0,0.5],[1,0.5]];portConstraint=eastwest;whiteSpace=wrap;html=1;" vertex="1" parent="ywtfyx2kaNOGGYBeNAY6-11">
          <mxGeometry y="26" width="160" height="94" as="geometry" />
        </mxCell>
        <mxCell id="ywtfyx2kaNOGGYBeNAY6-13" value="" style="line;strokeWidth=1;fillColor=none;align=left;verticalAlign=middle;spacingTop=-1;spacingLeft=3;spacingRight=3;rotatable=0;labelPosition=right;points=[];portConstraint=eastwest;strokeColor=inherit;" vertex="1" parent="ywtfyx2kaNOGGYBeNAY6-11">
          <mxGeometry y="120" width="160" height="8" as="geometry" />
        </mxCell>
        <mxCell id="ywtfyx2kaNOGGYBeNAY6-14" value="&lt;div&gt;+ Cure: void&lt;br&gt;&lt;/div&gt;+ AddItem(IItem): void&lt;span style=&quot;background-color: initial;&quot;&gt;&amp;nbsp;&lt;/span&gt;&lt;div&gt;+ ReceiveAttack(int): voi&lt;span style=&quot;background-color: initial;&quot;&gt;d&lt;/span&gt;&lt;/div&gt;" style="text;strokeColor=none;fillColor=none;align=left;verticalAlign=top;spacingLeft=4;spacingRight=4;overflow=hidden;rotatable=0;points=[[0,0.5],[1,0.5]];portConstraint=eastwest;whiteSpace=wrap;html=1;" vertex="1" parent="ywtfyx2kaNOGGYBeNAY6-11">
          <mxGeometry y="128" width="160" height="62" as="geometry" />
        </mxCell>
        <mxCell id="6xLySdYBZOp1CcjLtc1y-22" style="edgeStyle=orthogonalEdgeStyle;rounded=0;orthogonalLoop=1;jettySize=auto;html=1;exitX=0.5;exitY=0;exitDx=0;exitDy=0;entryX=0.5;entryY=0;entryDx=0;entryDy=0;" edge="1" parent="1" source="ywtfyx2kaNOGGYBeNAY6-15" target="6xLySdYBZOp1CcjLtc1y-3">
          <mxGeometry relative="1" as="geometry" />
        </mxCell>
        <mxCell id="ywtfyx2kaNOGGYBeNAY6-15" value="Enano" style="swimlane;fontStyle=1;align=center;verticalAlign=top;childLayout=stackLayout;horizontal=1;startSize=26;horizontalStack=0;resizeParent=1;resizeParentMax=0;resizeLast=0;collapsible=1;marginBottom=0;whiteSpace=wrap;html=1;" vertex="1" parent="1">
          <mxGeometry x="815" y="152" width="160" height="190" as="geometry" />
        </mxCell>
        <mxCell id="ywtfyx2kaNOGGYBeNAY6-18" value="+ Name: string&lt;div&gt;+ MaxLife: integer&lt;/div&gt;&lt;div&gt;+ Life: integer&lt;br&gt;&lt;div&gt;+ Items: List&amp;lt;IItem&amp;gt;&lt;/div&gt;&lt;div&gt;+ AttackValue: integer&lt;/div&gt;&lt;div&gt;+ DefenseValue: integer&lt;/div&gt;&lt;/div&gt;" style="text;strokeColor=none;fillColor=none;align=left;verticalAlign=top;spacingLeft=4;spacingRight=4;overflow=hidden;rotatable=0;points=[[0,0.5],[1,0.5]];portConstraint=eastwest;whiteSpace=wrap;html=1;" vertex="1" parent="ywtfyx2kaNOGGYBeNAY6-15">
          <mxGeometry y="26" width="160" height="94" as="geometry" />
        </mxCell>
        <mxCell id="ywtfyx2kaNOGGYBeNAY6-19" value="" style="line;strokeWidth=1;fillColor=none;align=left;verticalAlign=middle;spacingTop=-1;spacingLeft=3;spacingRight=3;rotatable=0;labelPosition=right;points=[];portConstraint=eastwest;strokeColor=inherit;" vertex="1" parent="ywtfyx2kaNOGGYBeNAY6-15">
          <mxGeometry y="120" width="160" height="8" as="geometry" />
        </mxCell>
        <mxCell id="ywtfyx2kaNOGGYBeNAY6-20" value="&lt;div&gt;&lt;div&gt;&lt;div&gt;&lt;div&gt;&lt;div&gt;&lt;div&gt;+ Cure: void&lt;br&gt;&lt;/div&gt;+ AddItem(IItem): void&lt;span style=&quot;background-color: initial;&quot;&gt;&amp;nbsp;&lt;/span&gt;&lt;div&gt;+ ReceiveAttack(int): voi&lt;span style=&quot;background-color: initial;&quot;&gt;d&lt;/span&gt;&lt;/div&gt;&lt;/div&gt;&lt;/div&gt;&lt;/div&gt;&lt;/div&gt;&lt;/div&gt;" style="text;strokeColor=none;fillColor=none;align=left;verticalAlign=top;spacingLeft=4;spacingRight=4;overflow=hidden;rotatable=0;points=[[0,0.5],[1,0.5]];portConstraint=eastwest;whiteSpace=wrap;html=1;" vertex="1" parent="ywtfyx2kaNOGGYBeNAY6-15">
          <mxGeometry y="128" width="160" height="62" as="geometry" />
        </mxCell>
        <mxCell id="ywtfyx2kaNOGGYBeNAY6-33" value="«interface»&lt;br&gt;&lt;b&gt;IIsMagic&lt;/b&gt;" style="html=1;whiteSpace=wrap;" vertex="1" parent="1">
          <mxGeometry x="137" y="646" width="110" height="50" as="geometry" />
        </mxCell>
        <mxCell id="6xLySdYBZOp1CcjLtc1y-46" style="edgeStyle=orthogonalEdgeStyle;rounded=0;orthogonalLoop=1;jettySize=auto;html=1;exitX=0.5;exitY=0;exitDx=0;exitDy=0;entryX=0.5;entryY=0;entryDx=0;entryDy=0;" edge="1" parent="1" source="ywtfyx2kaNOGGYBeNAY6-37" target="6xLySdYBZOp1CcjLtc1y-11">
          <mxGeometry relative="1" as="geometry" />
        </mxCell>
        <mxCell id="ywtfyx2kaNOGGYBeNAY6-37" value="Spell" style="swimlane;fontStyle=1;align=center;verticalAlign=top;childLayout=stackLayout;horizontal=1;startSize=26;horizontalStack=0;resizeParent=1;resizeParentMax=0;resizeLast=0;collapsible=1;marginBottom=0;whiteSpace=wrap;html=1;" vertex="1" parent="1">
          <mxGeometry x="982" y="496" width="130" height="114" as="geometry" />
        </mxCell>
        <mxCell id="ywtfyx2kaNOGGYBeNAY6-38" value="+ Name: string&lt;div&gt;+ Attack: integer&lt;/div&gt;&lt;div&gt;+ IsMagic: bool&lt;/div&gt;" style="text;strokeColor=none;fillColor=none;align=left;verticalAlign=top;spacingLeft=4;spacingRight=4;overflow=hidden;rotatable=0;points=[[0,0.5],[1,0.5]];portConstraint=eastwest;whiteSpace=wrap;html=1;" vertex="1" parent="ywtfyx2kaNOGGYBeNAY6-37">
          <mxGeometry y="26" width="130" height="54" as="geometry" />
        </mxCell>
        <mxCell id="ywtfyx2kaNOGGYBeNAY6-39" value="" style="line;strokeWidth=1;fillColor=none;align=left;verticalAlign=middle;spacingTop=-1;spacingLeft=3;spacingRight=3;rotatable=0;labelPosition=right;points=[];portConstraint=eastwest;strokeColor=inherit;" vertex="1" parent="ywtfyx2kaNOGGYBeNAY6-37">
          <mxGeometry y="80" width="130" height="8" as="geometry" />
        </mxCell>
        <mxCell id="ywtfyx2kaNOGGYBeNAY6-40" value="+ IsAttack: bool" style="text;strokeColor=none;fillColor=none;align=left;verticalAlign=top;spacingLeft=4;spacingRight=4;overflow=hidden;rotatable=0;points=[[0,0.5],[1,0.5]];portConstraint=eastwest;whiteSpace=wrap;html=1;" vertex="1" parent="ywtfyx2kaNOGGYBeNAY6-37">
          <mxGeometry y="88" width="130" height="26" as="geometry" />
        </mxCell>
        <mxCell id="ywtfyx2kaNOGGYBeNAY6-41" value="«interface»&lt;br&gt;&lt;b&gt;IItemAttack&lt;/b&gt;" style="html=1;whiteSpace=wrap;" vertex="1" parent="1">
          <mxGeometry x="37" y="568" width="120" height="50" as="geometry" />
        </mxCell>
        <mxCell id="ywtfyx2kaNOGGYBeNAY6-42" value="«interface»&lt;br&gt;&lt;b&gt;IItemDefense&lt;/b&gt;" style="html=1;whiteSpace=wrap;" vertex="1" parent="1">
          <mxGeometry x="227" y="568" width="120" height="50" as="geometry" />
        </mxCell>
        <mxCell id="6xLySdYBZOp1CcjLtc1y-3" value="«interface»&lt;br&gt;&lt;b&gt;Personaje&lt;/b&gt;" style="html=1;whiteSpace=wrap;" vertex="1" parent="1">
          <mxGeometry x="195" y="232" width="120" height="50" as="geometry" />
        </mxCell>
        <mxCell id="6xLySdYBZOp1CcjLtc1y-23" style="edgeStyle=orthogonalEdgeStyle;rounded=0;orthogonalLoop=1;jettySize=auto;html=1;exitX=0.5;exitY=1;exitDx=0;exitDy=0;entryX=1;entryY=0.5;entryDx=0;entryDy=0;" edge="1" parent="1" source="6xLySdYBZOp1CcjLtc1y-11" target="ywtfyx2kaNOGGYBeNAY6-41">
          <mxGeometry relative="1" as="geometry" />
        </mxCell>
        <mxCell id="6xLySdYBZOp1CcjLtc1y-24" style="edgeStyle=orthogonalEdgeStyle;rounded=0;orthogonalLoop=1;jettySize=auto;html=1;exitX=0.5;exitY=1;exitDx=0;exitDy=0;entryX=0;entryY=0.5;entryDx=0;entryDy=0;" edge="1" parent="1" source="6xLySdYBZOp1CcjLtc1y-11" target="ywtfyx2kaNOGGYBeNAY6-42">
          <mxGeometry relative="1" as="geometry" />
        </mxCell>
        <mxCell id="6xLySdYBZOp1CcjLtc1y-11" value="«interface»&lt;br&gt;&lt;b&gt;IItem&lt;/b&gt;" style="html=1;whiteSpace=wrap;" vertex="1" parent="1">
          <mxGeometry x="132" y="496" width="120" height="50" as="geometry" />
        </mxCell>
        <mxCell id="6xLySdYBZOp1CcjLtc1y-45" style="edgeStyle=orthogonalEdgeStyle;rounded=0;orthogonalLoop=1;jettySize=auto;html=1;exitX=0.5;exitY=0;exitDx=0;exitDy=0;entryX=0.5;entryY=0;entryDx=0;entryDy=0;" edge="1" parent="1" source="6xLySdYBZOp1CcjLtc1y-15" target="6xLySdYBZOp1CcjLtc1y-11">
          <mxGeometry relative="1" as="geometry" />
        </mxCell>
        <mxCell id="6xLySdYBZOp1CcjLtc1y-15" value="Espada" style="swimlane;fontStyle=1;align=center;verticalAlign=top;childLayout=stackLayout;horizontal=1;startSize=26;horizontalStack=0;resizeParent=1;resizeParentMax=0;resizeLast=0;collapsible=1;marginBottom=0;whiteSpace=wrap;html=1;" vertex="1" parent="1">
          <mxGeometry x="842" y="496" width="130" height="140" as="geometry" />
        </mxCell>
        <mxCell id="6xLySdYBZOp1CcjLtc1y-16" value="+ Name string&lt;div&gt;+ Attack: integer&lt;/div&gt;&lt;div&gt;+ Defense: integer&lt;/div&gt;" style="text;strokeColor=none;fillColor=none;align=left;verticalAlign=top;spacingLeft=4;spacingRight=4;overflow=hidden;rotatable=0;points=[[0,0.5],[1,0.5]];portConstraint=eastwest;whiteSpace=wrap;html=1;" vertex="1" parent="6xLySdYBZOp1CcjLtc1y-15">
          <mxGeometry y="26" width="130" height="54" as="geometry" />
        </mxCell>
        <mxCell id="6xLySdYBZOp1CcjLtc1y-17" value="" style="line;strokeWidth=1;fillColor=none;align=left;verticalAlign=middle;spacingTop=-1;spacingLeft=3;spacingRight=3;rotatable=0;labelPosition=right;points=[];portConstraint=eastwest;strokeColor=inherit;" vertex="1" parent="6xLySdYBZOp1CcjLtc1y-15">
          <mxGeometry y="80" width="130" height="8" as="geometry" />
        </mxCell>
        <mxCell id="6xLySdYBZOp1CcjLtc1y-18" value="+ IsAttack: bool&lt;div&gt;+ IsDefense: bool&lt;/div&gt;&lt;div&gt;+ IsMagic: bool&lt;/div&gt;" style="text;strokeColor=none;fillColor=none;align=left;verticalAlign=top;spacingLeft=4;spacingRight=4;overflow=hidden;rotatable=0;points=[[0,0.5],[1,0.5]];portConstraint=eastwest;whiteSpace=wrap;html=1;" vertex="1" parent="6xLySdYBZOp1CcjLtc1y-15">
          <mxGeometry y="88" width="130" height="52" as="geometry" />
        </mxCell>
        <mxCell id="6xLySdYBZOp1CcjLtc1y-43" style="edgeStyle=orthogonalEdgeStyle;rounded=0;orthogonalLoop=1;jettySize=auto;html=1;exitX=0.5;exitY=0;exitDx=0;exitDy=0;entryX=0.5;entryY=0;entryDx=0;entryDy=0;" edge="1" parent="1" source="6xLySdYBZOp1CcjLtc1y-30" target="6xLySdYBZOp1CcjLtc1y-11">
          <mxGeometry relative="1" as="geometry" />
        </mxCell>
        <mxCell id="6xLySdYBZOp1CcjLtc1y-30" value="Armadura" style="swimlane;fontStyle=1;align=center;verticalAlign=top;childLayout=stackLayout;horizontal=1;startSize=26;horizontalStack=0;resizeParent=1;resizeParentMax=0;resizeLast=0;collapsible=1;marginBottom=0;whiteSpace=wrap;html=1;" vertex="1" parent="1">
          <mxGeometry x="562" y="496" width="130" height="120" as="geometry" />
        </mxCell>
        <mxCell id="6xLySdYBZOp1CcjLtc1y-31" value="+ Name string&lt;div&gt;+ Defense: integer&lt;/div&gt;&lt;div&gt;+ IsMagic: bool&lt;/div&gt;" style="text;strokeColor=none;fillColor=none;align=left;verticalAlign=top;spacingLeft=4;spacingRight=4;overflow=hidden;rotatable=0;points=[[0,0.5],[1,0.5]];portConstraint=eastwest;whiteSpace=wrap;html=1;" vertex="1" parent="6xLySdYBZOp1CcjLtc1y-30">
          <mxGeometry y="26" width="130" height="54" as="geometry" />
        </mxCell>
        <mxCell id="6xLySdYBZOp1CcjLtc1y-32" value="" style="line;strokeWidth=1;fillColor=none;align=left;verticalAlign=middle;spacingTop=-1;spacingLeft=3;spacingRight=3;rotatable=0;labelPosition=right;points=[];portConstraint=eastwest;strokeColor=inherit;" vertex="1" parent="6xLySdYBZOp1CcjLtc1y-30">
          <mxGeometry y="80" width="130" height="8" as="geometry" />
        </mxCell>
        <mxCell id="6xLySdYBZOp1CcjLtc1y-33" value="+ IsDefense&lt;span style=&quot;background-color: initial;&quot;&gt;: bool&lt;/span&gt;" style="text;strokeColor=none;fillColor=none;align=left;verticalAlign=top;spacingLeft=4;spacingRight=4;overflow=hidden;rotatable=0;points=[[0,0.5],[1,0.5]];portConstraint=eastwest;whiteSpace=wrap;html=1;" vertex="1" parent="6xLySdYBZOp1CcjLtc1y-30">
          <mxGeometry y="88" width="130" height="32" as="geometry" />
        </mxCell>
        <mxCell id="6xLySdYBZOp1CcjLtc1y-42" style="edgeStyle=orthogonalEdgeStyle;rounded=0;orthogonalLoop=1;jettySize=auto;html=1;exitX=0.5;exitY=0;exitDx=0;exitDy=0;entryX=0.5;entryY=0;entryDx=0;entryDy=0;" edge="1" parent="1" source="6xLySdYBZOp1CcjLtc1y-34" target="6xLySdYBZOp1CcjLtc1y-11">
          <mxGeometry relative="1" as="geometry" />
        </mxCell>
        <mxCell id="6xLySdYBZOp1CcjLtc1y-34" value="Arco" style="swimlane;fontStyle=1;align=center;verticalAlign=top;childLayout=stackLayout;horizontal=1;startSize=26;horizontalStack=0;resizeParent=1;resizeParentMax=0;resizeLast=0;collapsible=1;marginBottom=0;whiteSpace=wrap;html=1;" vertex="1" parent="1">
          <mxGeometry x="422" y="496" width="130" height="120" as="geometry" />
        </mxCell>
        <mxCell id="6xLySdYBZOp1CcjLtc1y-35" value="+ Name string&lt;div&gt;+ Attack: integer&lt;/div&gt;&lt;div&gt;+ IsMagic: bool&lt;/div&gt;" style="text;strokeColor=none;fillColor=none;align=left;verticalAlign=top;spacingLeft=4;spacingRight=4;overflow=hidden;rotatable=0;points=[[0,0.5],[1,0.5]];portConstraint=eastwest;whiteSpace=wrap;html=1;" vertex="1" parent="6xLySdYBZOp1CcjLtc1y-34">
          <mxGeometry y="26" width="130" height="54" as="geometry" />
        </mxCell>
        <mxCell id="6xLySdYBZOp1CcjLtc1y-36" value="" style="line;strokeWidth=1;fillColor=none;align=left;verticalAlign=middle;spacingTop=-1;spacingLeft=3;spacingRight=3;rotatable=0;labelPosition=right;points=[];portConstraint=eastwest;strokeColor=inherit;" vertex="1" parent="6xLySdYBZOp1CcjLtc1y-34">
          <mxGeometry y="80" width="130" height="8" as="geometry" />
        </mxCell>
        <mxCell id="6xLySdYBZOp1CcjLtc1y-37" value="+ IsAttack&lt;span style=&quot;background-color: initial;&quot;&gt;: bool&lt;/span&gt;" style="text;strokeColor=none;fillColor=none;align=left;verticalAlign=top;spacingLeft=4;spacingRight=4;overflow=hidden;rotatable=0;points=[[0,0.5],[1,0.5]];portConstraint=eastwest;whiteSpace=wrap;html=1;" vertex="1" parent="6xLySdYBZOp1CcjLtc1y-34">
          <mxGeometry y="88" width="130" height="32" as="geometry" />
        </mxCell>
        <mxCell id="6xLySdYBZOp1CcjLtc1y-44" style="edgeStyle=orthogonalEdgeStyle;rounded=0;orthogonalLoop=1;jettySize=auto;html=1;exitX=0.5;exitY=0;exitDx=0;exitDy=0;entryX=0.5;entryY=0;entryDx=0;entryDy=0;" edge="1" parent="1" source="6xLySdYBZOp1CcjLtc1y-38" target="6xLySdYBZOp1CcjLtc1y-11">
          <mxGeometry relative="1" as="geometry" />
        </mxCell>
        <mxCell id="6xLySdYBZOp1CcjLtc1y-38" value="Escudo" style="swimlane;fontStyle=1;align=center;verticalAlign=top;childLayout=stackLayout;horizontal=1;startSize=26;horizontalStack=0;resizeParent=1;resizeParentMax=0;resizeLast=0;collapsible=1;marginBottom=0;whiteSpace=wrap;html=1;" vertex="1" parent="1">
          <mxGeometry x="702" y="496" width="130" height="120" as="geometry" />
        </mxCell>
        <mxCell id="6xLySdYBZOp1CcjLtc1y-39" value="+ Name string&lt;div&gt;+ Defense: integer&lt;/div&gt;&lt;div&gt;+ IsMagic: bool&lt;/div&gt;" style="text;strokeColor=none;fillColor=none;align=left;verticalAlign=top;spacingLeft=4;spacingRight=4;overflow=hidden;rotatable=0;points=[[0,0.5],[1,0.5]];portConstraint=eastwest;whiteSpace=wrap;html=1;" vertex="1" parent="6xLySdYBZOp1CcjLtc1y-38">
          <mxGeometry y="26" width="130" height="54" as="geometry" />
        </mxCell>
        <mxCell id="6xLySdYBZOp1CcjLtc1y-40" value="" style="line;strokeWidth=1;fillColor=none;align=left;verticalAlign=middle;spacingTop=-1;spacingLeft=3;spacingRight=3;rotatable=0;labelPosition=right;points=[];portConstraint=eastwest;strokeColor=inherit;" vertex="1" parent="6xLySdYBZOp1CcjLtc1y-38">
          <mxGeometry y="80" width="130" height="8" as="geometry" />
        </mxCell>
        <mxCell id="6xLySdYBZOp1CcjLtc1y-41" value="+ IsDefense&lt;span style=&quot;background-color: initial;&quot;&gt;: bool&lt;/span&gt;" style="text;strokeColor=none;fillColor=none;align=left;verticalAlign=top;spacingLeft=4;spacingRight=4;overflow=hidden;rotatable=0;points=[[0,0.5],[1,0.5]];portConstraint=eastwest;whiteSpace=wrap;html=1;" vertex="1" parent="6xLySdYBZOp1CcjLtc1y-38">
          <mxGeometry y="88" width="130" height="32" as="geometry" />
        </mxCell>
        <mxCell id="6xLySdYBZOp1CcjLtc1y-47" style="edgeStyle=orthogonalEdgeStyle;rounded=0;orthogonalLoop=1;jettySize=auto;html=1;exitX=1;exitY=0.5;exitDx=0;exitDy=0;entryX=1;entryY=0.5;entryDx=0;entryDy=0;" edge="1" parent="1" source="ywtfyx2kaNOGGYBeNAY6-40" target="ywtfyx2kaNOGGYBeNAY6-33">
          <mxGeometry relative="1" as="geometry" />
        </mxCell>
      </root>
    </mxGraphModel>
  </diagram>
</mxfile>
